<svg width="229" height="42" viewBox="0 0 229 42" fill="none" xmlns="http://www.w3.org/2000/svg">
<rect x="1" y="1" width="76" height="40" stroke="white" stroke-width="2"/>
<path d="M22.4426 32.1212L17.8812 24.0448H14.4601V32.1212H10V8.87878H19.0722C21.1756 8.87878 22.9495 9.63189 24.4193 11.1381C25.8891 12.6443 26.624 14.4622 26.624 16.5916C26.624 18.0199 26.2185 19.3703 25.4329 20.5909C24.622 21.8114 23.583 22.7463 22.2652 23.3696L27.2828 32.1212H22.4426ZM14.4601 13.1637V20.0455H19.0469C19.8831 20.0455 20.618 19.7079 21.2262 19.0327C21.8344 18.3575 22.1385 17.5525 22.1385 16.5916C22.1385 15.6308 21.8344 14.8257 21.2262 14.1765C20.618 13.5013 19.9085 13.1897 19.0469 13.1897H14.4601V13.1637Z" fill="white"/>
<path d="M52.3131 19.6208V21.4317C52.3131 24.7911 51.2496 27.4944 49.1226 29.594C46.9955 31.6674 44.2719 32.7172 40.8998 32.7172C37.3201 32.7172 34.363 31.5361 32.0025 29.1741C29.642 26.812 28.4747 23.925 28.4747 20.5394C28.4747 17.1275 29.642 14.2143 31.9766 11.8522C34.2852 9.46387 37.1904 8.28284 40.6404 8.28284C42.7933 8.28284 44.7907 8.7815 46.5805 9.77882C48.3703 10.7761 49.7711 12.0884 50.7568 13.7419L46.8399 16.0252C46.2952 15.0541 45.4651 14.293 44.3238 13.6894C43.2084 13.0857 41.9633 12.7708 40.5885 12.7708C38.3836 12.7708 36.5679 13.5056 35.1412 14.9754C33.7145 16.4451 33.0142 18.2823 33.0142 20.5394C33.0142 22.744 33.7405 24.5811 35.1931 26.0246C36.6457 27.4681 38.5652 28.1767 40.9516 28.1767C42.7155 28.1767 44.1941 27.7831 45.3354 26.9957C46.5027 26.2084 47.2809 25.1061 47.6959 23.7151H40.6663V19.6208H52.3131Z" fill="white"/>
<path d="M69 13.2676H59.8106V18.773H68.7433V23.1618H59.8106V32.1212H55.2929V8.87878H69V13.2676Z" fill="white"/>
<path d="M99.442 17L96.778 12.41H94.33V17H92.26V4.4H97.3C98.428 4.4 99.382 4.796 100.162 5.588C100.954 6.368 101.35 7.322 101.35 8.45C101.35 9.254 101.116 9.992 100.648 10.664C100.192 11.324 99.592 11.804 98.848 12.104L101.71 17H99.442ZM94.33 6.344V10.556H97.3C97.852 10.556 98.32 10.352 98.704 9.944C99.088 9.536 99.28 9.038 99.28 8.45C99.28 7.862 99.088 7.364 98.704 6.956C98.32 6.548 97.852 6.344 97.3 6.344H94.33ZM104.228 13.328C104.372 14.012 104.702 14.54 105.218 14.912C105.734 15.272 106.364 15.452 107.108 15.452C108.14 15.452 108.914 15.08 109.43 14.336L111.032 15.272C110.144 16.58 108.83 17.234 107.09 17.234C105.626 17.234 104.444 16.79 103.544 15.902C102.644 15.002 102.194 13.868 102.194 12.5C102.194 11.156 102.638 10.034 103.526 9.134C104.414 8.222 105.554 7.766 106.946 7.766C108.266 7.766 109.346 8.228 110.186 9.152C111.038 10.076 111.464 11.198 111.464 12.518C111.464 12.722 111.44 12.992 111.392 13.328H104.228ZM104.21 11.744H109.502C109.37 11.012 109.064 10.46 108.584 10.088C108.116 9.716 107.564 9.53 106.928 9.53C106.208 9.53 105.608 9.728 105.128 10.124C104.648 10.52 104.342 11.06 104.21 11.744ZM118.925 8H121.049L117.539 17H115.289L111.779 8H113.903L116.423 14.84L118.925 8ZM123.459 13.328C123.603 14.012 123.933 14.54 124.449 14.912C124.965 15.272 125.595 15.452 126.339 15.452C127.371 15.452 128.145 15.08 128.661 14.336L130.263 15.272C129.375 16.58 128.061 17.234 126.321 17.234C124.857 17.234 123.675 16.79 122.775 15.902C121.875 15.002 121.425 13.868 121.425 12.5C121.425 11.156 121.869 10.034 122.757 9.134C123.645 8.222 124.785 7.766 126.177 7.766C127.497 7.766 128.577 8.228 129.417 9.152C130.269 10.076 130.695 11.198 130.695 12.518C130.695 12.722 130.671 12.992 130.623 13.328H123.459ZM123.441 11.744H128.733C128.601 11.012 128.295 10.46 127.815 10.088C127.347 9.716 126.795 9.53 126.159 9.53C125.439 9.53 124.839 9.728 124.359 10.124C123.879 10.52 123.573 11.06 123.441 11.744ZM137.139 7.766C138.171 7.766 139.005 8.096 139.641 8.756C140.277 9.416 140.595 10.322 140.595 11.474V17H138.651V11.672C138.651 11 138.471 10.484 138.111 10.124C137.751 9.764 137.259 9.584 136.635 9.584C135.951 9.584 135.399 9.8 134.979 10.232C134.559 10.652 134.349 11.3 134.349 12.176V17H132.405V8H134.349V9.152C134.937 8.228 135.867 7.766 137.139 7.766ZM148.755 8H150.699V17H148.755V15.848C148.167 16.772 147.237 17.234 145.965 17.234C144.933 17.234 144.099 16.904 143.463 16.244C142.827 15.584 142.509 14.678 142.509 13.526V8H144.453V13.328C144.453 14 144.633 14.516 144.993 14.876C145.353 15.236 145.845 15.416 146.469 15.416C147.153 15.416 147.705 15.206 148.125 14.786C148.545 14.354 148.755 13.7 148.755 12.824V8ZM154.502 13.328C154.646 14.012 154.976 14.54 155.492 14.912C156.008 15.272 156.638 15.452 157.382 15.452C158.414 15.452 159.188 15.08 159.704 14.336L161.306 15.272C160.418 16.58 159.104 17.234 157.364 17.234C155.9 17.234 154.718 16.79 153.818 15.902C152.918 15.002 152.468 13.868 152.468 12.5C152.468 11.156 152.912 10.034 153.8 9.134C154.688 8.222 155.828 7.766 157.22 7.766C158.54 7.766 159.62 8.228 160.46 9.152C161.312 10.076 161.738 11.198 161.738 12.518C161.738 12.722 161.714 12.992 161.666 13.328H154.502ZM154.484 11.744H159.776C159.644 11.012 159.338 10.46 158.858 10.088C158.39 9.716 157.838 9.53 157.202 9.53C156.482 9.53 155.882 9.728 155.402 10.124C154.922 10.52 154.616 11.06 154.484 11.744ZM104.518 31.484V32.348C104.518 34.076 103.948 35.492 102.808 36.596C101.668 37.688 100.18 38.234 98.344 38.234C96.4 38.234 94.792 37.604 93.52 36.344C92.26 35.084 91.63 33.536 91.63 31.7C91.63 29.876 92.26 28.334 93.52 27.074C94.792 25.802 96.364 25.166 98.236 25.166C99.412 25.166 100.486 25.436 101.458 25.976C102.43 26.516 103.186 27.242 103.726 28.154L101.944 29.18C101.608 28.58 101.11 28.1 100.45 27.74C99.79 27.368 99.052 27.182 98.236 27.182C96.916 27.182 95.83 27.614 94.978 28.478C94.126 29.342 93.7 30.422 93.7 31.718C93.7 33.014 94.126 34.088 94.978 34.94C95.842 35.792 96.97 36.218 98.362 36.218C99.478 36.218 100.384 35.96 101.08 35.444C101.788 34.916 102.238 34.214 102.43 33.338H98.218V31.484H104.518ZM108.228 30.512C108.72 29.396 109.644 28.838 111 28.838V30.944C110.256 30.896 109.608 31.076 109.056 31.484C108.504 31.88 108.228 32.54 108.228 33.464V38H106.284V29H108.228V30.512ZM116.263 38.234C114.943 38.234 113.821 37.778 112.897 36.866C111.973 35.954 111.511 34.832 111.511 33.5C111.511 32.168 111.973 31.046 112.897 30.134C113.821 29.222 114.943 28.766 116.263 28.766C117.595 28.766 118.717 29.222 119.629 30.134C120.553 31.046 121.015 32.168 121.015 33.5C121.015 34.832 120.553 35.954 119.629 36.866C118.717 37.778 117.595 38.234 116.263 38.234ZM114.265 35.534C114.805 36.074 115.471 36.344 116.263 36.344C117.055 36.344 117.721 36.074 118.261 35.534C118.801 34.994 119.071 34.316 119.071 33.5C119.071 32.684 118.801 32.006 118.261 31.466C117.721 30.926 117.055 30.656 116.263 30.656C115.471 30.656 114.805 30.926 114.265 31.466C113.725 32.006 113.455 32.684 113.455 33.5C113.455 34.316 113.725 34.994 114.265 35.534ZM132.789 29H134.841L132.015 38H130.107L128.235 31.934L126.345 38H124.437L121.611 29H123.663L125.409 35.21L127.299 29H129.153L131.025 35.21L132.789 29ZM141.295 30.872H139.063V35.192C139.063 35.564 139.147 35.834 139.315 36.002C139.483 36.158 139.729 36.248 140.053 36.272C140.389 36.284 140.803 36.278 141.295 36.254V38C139.807 38.18 138.739 38.054 138.091 37.622C137.443 37.178 137.119 36.368 137.119 35.192V30.872H135.463V29H137.119V27.056L139.063 26.48V29H141.295V30.872ZM147.792 28.766C148.824 28.766 149.658 29.096 150.294 29.756C150.93 30.416 151.248 31.322 151.248 32.474V38H149.304V32.672C149.304 32 149.124 31.484 148.764 31.124C148.404 30.764 147.912 30.584 147.288 30.584C146.604 30.584 146.052 30.8 145.632 31.232C145.212 31.652 145.002 32.3 145.002 33.176V38H143.058V25.4H145.002V30.152C145.59 29.228 146.52 28.766 147.792 28.766ZM165.347 27.38H160.037V30.908H165.167V32.888H160.037V38H157.967V25.4H165.347V27.38ZM173.223 29H175.167V38H173.223V36.848C172.635 37.772 171.705 38.234 170.433 38.234C169.401 38.234 168.567 37.904 167.931 37.244C167.295 36.584 166.977 35.678 166.977 34.526V29H168.921V34.328C168.921 35 169.101 35.516 169.461 35.876C169.821 36.236 170.313 36.416 170.937 36.416C171.621 36.416 172.173 36.206 172.593 35.786C173.013 35.354 173.223 34.7 173.223 33.824V29ZM182.175 28.766C183.207 28.766 184.041 29.096 184.677 29.756C185.313 30.416 185.631 31.322 185.631 32.474V38H183.687V32.672C183.687 32 183.507 31.484 183.147 31.124C182.787 30.764 182.295 30.584 181.671 30.584C180.987 30.584 180.435 30.8 180.015 31.232C179.595 31.652 179.385 32.3 179.385 33.176V38H177.441V29H179.385V30.152C179.973 29.228 180.903 28.766 182.175 28.766ZM194.852 25.4H196.796V38H194.852V36.704C194.12 37.724 193.07 38.234 191.702 38.234C190.466 38.234 189.41 37.778 188.534 36.866C187.658 35.942 187.22 34.82 187.22 33.5C187.22 32.168 187.658 31.046 188.534 30.134C189.41 29.222 190.466 28.766 191.702 28.766C193.07 28.766 194.12 29.27 194.852 30.278V25.4ZM189.974 35.57C190.514 36.11 191.192 36.38 192.008 36.38C192.824 36.38 193.502 36.11 194.042 35.57C194.582 35.018 194.852 34.328 194.852 33.5C194.852 32.672 194.582 31.988 194.042 31.448C193.502 30.896 192.824 30.62 192.008 30.62C191.192 30.62 190.514 30.896 189.974 31.448C189.434 31.988 189.164 32.672 189.164 33.5C189.164 34.328 189.434 35.018 189.974 35.57Z" fill="white"/>
</svg>
