<svg width="111" height="101" viewBox="0 0 111 101" fill="none" xmlns="http://www.w3.org/2000/svg">
<rect x="1" y="1" width="109" height="57" stroke="white" stroke-width="2"/>
<path d="M31.0091 45.5962L24.407 33.9066H19.4554V45.5962H13V11.9558H26.1308C29.1751 11.9558 31.7426 13.0458 33.87 15.2259C35.9973 17.4059 37.061 20.037 37.061 23.1191C37.061 25.1864 36.4741 27.141 35.3371 28.9075C34.1634 30.6741 32.6596 32.0273 30.7523 32.9293L38.0146 45.5962H31.0091ZM19.4554 18.1577V28.1182H26.0942C27.3045 28.1182 28.3682 27.6296 29.2485 26.6523C30.1288 25.6751 30.5689 24.5099 30.5689 23.1191C30.5689 21.7284 30.1288 20.5632 29.2485 19.6236C28.3682 18.6463 27.3412 18.1953 26.0942 18.1953H19.4554V18.1577Z" fill="white"/>
<path d="M74.2427 27.5035V30.1245C74.2427 34.9868 72.7034 38.8994 69.6248 41.9384C66.5462 44.9393 62.604 46.4588 57.7233 46.4588C52.5422 46.4588 48.2622 44.7494 44.8457 41.3306C41.4292 37.9118 39.7397 33.7333 39.7397 28.833C39.7397 23.8947 41.4292 19.6782 44.8082 16.2594C48.1496 12.8027 52.3545 11.0933 57.3479 11.0933C60.464 11.0933 63.3549 11.815 65.9454 13.2585C68.536 14.702 70.5634 16.6013 71.99 18.9945L66.3209 22.2993C65.5325 20.8938 64.3311 19.7922 62.6791 18.9185C61.0647 18.0448 59.2626 17.589 57.2728 17.589C54.0815 17.589 51.4535 18.6526 49.3885 20.7798C47.3236 22.9071 46.3099 25.5661 46.3099 28.833C46.3099 32.0239 47.3612 34.6829 49.4636 36.7722C51.5661 38.8614 54.3444 39.8871 57.7984 39.8871C60.3514 39.8871 62.4914 39.3173 64.1433 38.1777C65.8328 37.0381 66.9591 35.4427 67.5598 33.4294H57.3854V27.5035H74.2427Z" fill="white"/>
<path d="M98.3948 18.308H85.0944V26.2765H98.0233V32.6287H85.0944V45.5962H78.5556V11.9558H98.3948V18.308Z" fill="white"/>
<path d="M34.8326 80L32.7606 76.43H30.8566V80H29.2466V70.2H33.1666C34.0439 70.2 34.7859 70.508 35.3926 71.124C36.0086 71.7307 36.3166 72.4727 36.3166 73.35C36.3166 73.9753 36.1346 74.5493 35.7706 75.072C35.4159 75.5853 34.9493 75.9587 34.3706 76.192L36.5966 80H34.8326ZM30.8566 71.712V74.988H33.1666C33.5959 74.988 33.9599 74.8293 34.2586 74.512C34.5573 74.1947 34.7066 73.8073 34.7066 73.35C34.7066 72.8927 34.5573 72.5053 34.2586 72.188C33.9599 71.8707 33.5959 71.712 33.1666 71.712H30.8566ZM38.5554 77.144C38.6674 77.676 38.9241 78.0867 39.3254 78.376C39.7267 78.656 40.2167 78.796 40.7954 78.796C41.5981 78.796 42.2001 78.5067 42.6014 77.928L43.8474 78.656C43.1567 79.6733 42.1347 80.182 40.7814 80.182C39.6427 80.182 38.7234 79.8367 38.0234 79.146C37.3234 78.446 36.9734 77.564 36.9734 76.5C36.9734 75.4547 37.3187 74.582 38.0094 73.882C38.7001 73.1727 39.5867 72.818 40.6694 72.818C41.6961 72.818 42.5361 73.1773 43.1894 73.896C43.8521 74.6147 44.1834 75.4873 44.1834 76.514C44.1834 76.6727 44.1647 76.8827 44.1274 77.144H38.5554ZM38.5414 75.912H42.6574C42.5547 75.3427 42.3167 74.9133 41.9434 74.624C41.5794 74.3347 41.1501 74.19 40.6554 74.19C40.0954 74.19 39.6287 74.344 39.2554 74.652C38.8821 74.96 38.6441 75.38 38.5414 75.912ZM49.9864 73H51.6384L48.9084 80H47.1584L44.4284 73H46.0804L48.0404 78.32L49.9864 73ZM53.5124 77.144C53.6244 77.676 53.8811 78.0867 54.2824 78.376C54.6838 78.656 55.1738 78.796 55.7524 78.796C56.5551 78.796 57.1571 78.5067 57.5584 77.928L58.8044 78.656C58.1138 79.6733 57.0918 80.182 55.7384 80.182C54.5998 80.182 53.6804 79.8367 52.9804 79.146C52.2804 78.446 51.9304 77.564 51.9304 76.5C51.9304 75.4547 52.2758 74.582 52.9664 73.882C53.6571 73.1727 54.5438 72.818 55.6264 72.818C56.6531 72.818 57.4931 73.1773 58.1464 73.896C58.8091 74.6147 59.1404 75.4873 59.1404 76.514C59.1404 76.6727 59.1218 76.8827 59.0844 77.144H53.5124ZM53.4984 75.912H57.6144C57.5118 75.3427 57.2738 74.9133 56.9004 74.624C56.5364 74.3347 56.1071 74.19 55.6124 74.19C55.0524 74.19 54.5858 74.344 54.2124 74.652C53.8391 74.96 53.6011 75.38 53.4984 75.912ZM64.1529 72.818C64.9555 72.818 65.6042 73.0747 66.0989 73.588C66.5935 74.1013 66.8409 74.806 66.8409 75.702V80H65.3289V75.856C65.3289 75.3333 65.1889 74.932 64.9089 74.652C64.6289 74.372 64.2462 74.232 63.7609 74.232C63.2289 74.232 62.7995 74.4 62.4729 74.736C62.1462 75.0627 61.9829 75.5667 61.9829 76.248V80H60.4709V73H61.9829V73.896C62.4402 73.1773 63.1635 72.818 64.1529 72.818ZM73.1869 73H74.6989V80H73.1869V79.104C72.7296 79.8227 72.0062 80.182 71.0169 80.182C70.2142 80.182 69.5656 79.9253 69.0709 79.412C68.5762 78.8987 68.3289 78.194 68.3289 77.298V73H69.8409V77.144C69.8409 77.6667 69.9809 78.068 70.2609 78.348C70.5409 78.628 70.9236 78.768 71.4089 78.768C71.9409 78.768 72.3702 78.6047 72.6969 78.278C73.0236 77.942 73.1869 77.4333 73.1869 76.752V73ZM77.657 77.144C77.769 77.676 78.0256 78.0867 78.427 78.376C78.8283 78.656 79.3183 78.796 79.897 78.796C80.6996 78.796 81.3016 78.5067 81.703 77.928L82.949 78.656C82.2583 79.6733 81.2363 80.182 79.883 80.182C78.7443 80.182 77.825 79.8367 77.125 79.146C76.425 78.446 76.075 77.564 76.075 76.5C76.075 75.4547 76.4203 74.582 77.111 73.882C77.8016 73.1727 78.6883 72.818 79.771 72.818C80.7976 72.818 81.6376 73.1773 82.291 73.896C82.9536 74.6147 83.285 75.4873 83.285 76.514C83.285 76.6727 83.2663 76.8827 83.229 77.144H77.657ZM77.643 75.912H81.759C81.6563 75.3427 81.4183 74.9133 81.045 74.624C80.681 74.3347 80.2516 74.19 79.757 74.19C79.197 74.19 78.7303 74.344 78.357 74.652C77.9836 74.96 77.7456 75.38 77.643 75.912ZM24.931 91.932V92.604C24.931 93.948 24.4877 95.0493 23.601 95.908C22.7143 96.7573 21.557 97.182 20.129 97.182C18.617 97.182 17.3663 96.692 16.377 95.712C15.397 94.732 14.907 93.528 14.907 92.1C14.907 90.6813 15.397 89.482 16.377 88.502C17.3663 87.5127 18.589 87.018 20.045 87.018C20.9597 87.018 21.795 87.228 22.551 87.648C23.307 88.068 23.895 88.6327 24.315 89.342L22.929 90.14C22.6677 89.6733 22.2803 89.3 21.767 89.02C21.2537 88.7307 20.6797 88.586 20.045 88.586C19.0183 88.586 18.1737 88.922 17.511 89.594C16.8483 90.266 16.517 91.106 16.517 92.114C16.517 93.122 16.8483 93.9573 17.511 94.62C18.183 95.2827 19.0603 95.614 20.143 95.614C21.011 95.614 21.7157 95.4133 22.257 95.012C22.8077 94.6013 23.1577 94.0553 23.307 93.374H20.031V91.932H24.931ZM27.8169 91.176C28.1995 90.308 28.9182 89.874 29.9729 89.874V91.512C29.3942 91.4747 28.8902 91.6147 28.4609 91.932C28.0315 92.24 27.8169 92.7533 27.8169 93.472V97H26.3049V90H27.8169V91.176ZM34.0659 97.182C33.0392 97.182 32.1665 96.8273 31.4479 96.118C30.7292 95.4087 30.3699 94.536 30.3699 93.5C30.3699 92.464 30.7292 91.5913 31.4479 90.882C32.1665 90.1727 33.0392 89.818 34.0659 89.818C35.1019 89.818 35.9745 90.1727 36.6839 90.882C37.4025 91.5913 37.7619 92.464 37.7619 93.5C37.7619 94.536 37.4025 95.4087 36.6839 96.118C35.9745 96.8273 35.1019 97.182 34.0659 97.182ZM32.5119 95.082C32.9319 95.502 33.4499 95.712 34.0659 95.712C34.6819 95.712 35.1999 95.502 35.6199 95.082C36.0399 94.662 36.2499 94.1347 36.2499 93.5C36.2499 92.8653 36.0399 92.338 35.6199 91.918C35.1999 91.498 34.6819 91.288 34.0659 91.288C33.4499 91.288 32.9319 91.498 32.5119 91.918C32.0919 92.338 31.8819 92.8653 31.8819 93.5C31.8819 94.1347 32.0919 94.662 32.5119 95.082ZM46.9196 90H48.5156L46.3176 97H44.8336L43.3776 92.282L41.9076 97H40.4236L38.2256 90H39.8216L41.1796 94.83L42.6496 90H44.0916L45.5476 94.83L46.9196 90ZM53.5351 91.456H51.7991V94.816C51.7991 95.1053 51.8644 95.3153 51.9951 95.446C52.1257 95.5673 52.3171 95.6373 52.5691 95.656C52.8304 95.6653 53.1524 95.6607 53.5351 95.642V97C52.3777 97.14 51.5471 97.042 51.0431 96.706C50.5391 96.3607 50.2871 95.7307 50.2871 94.816V91.456H48.9991V90H50.2871V88.488L51.7991 88.04V90H53.5351V91.456ZM58.5884 89.818C59.3911 89.818 60.0397 90.0747 60.5344 90.588C61.0291 91.1013 61.2764 91.806 61.2764 92.702V97H59.7644V92.856C59.7644 92.3333 59.6244 91.932 59.3444 91.652C59.0644 91.372 58.6817 91.232 58.1964 91.232C57.6644 91.232 57.2351 91.4 56.9084 91.736C56.5817 92.0627 56.4184 92.5667 56.4184 93.248V97H54.9064V87.2H56.4184V90.896C56.8757 90.1773 57.5991 89.818 58.5884 89.818ZM72.2425 88.74H68.1125V91.484H72.1025V93.024H68.1125V97H66.5025V87.2H72.2425V88.74ZM78.3686 90H79.8806V97H78.3686V96.104C77.9112 96.8227 77.1879 97.182 76.1986 97.182C75.3959 97.182 74.7472 96.9253 74.2526 96.412C73.7579 95.8987 73.5106 95.194 73.5106 94.298V90H75.0226V94.144C75.0226 94.6667 75.1626 95.068 75.4426 95.348C75.7226 95.628 76.1052 95.768 76.5906 95.768C77.1226 95.768 77.5519 95.6047 77.8786 95.278C78.2052 94.942 78.3686 94.4333 78.3686 93.752V90ZM85.3306 89.818C86.1333 89.818 86.7819 90.0747 87.2766 90.588C87.7713 91.1013 88.0186 91.806 88.0186 92.702V97H86.5066V92.856C86.5066 92.3333 86.3666 91.932 86.0866 91.652C85.8066 91.372 85.4239 91.232 84.9386 91.232C84.4066 91.232 83.9773 91.4 83.6506 91.736C83.3239 92.0627 83.1606 92.5667 83.1606 93.248V97H81.6486V90H83.1606V90.896C83.6179 90.1773 84.3413 89.818 85.3306 89.818ZM95.1906 87.2H96.7026V97H95.1906V95.992C94.6213 96.7853 93.8046 97.182 92.7406 97.182C91.7793 97.182 90.958 96.8273 90.2766 96.118C89.5953 95.3993 89.2546 94.5267 89.2546 93.5C89.2546 92.464 89.5953 91.5913 90.2766 90.882C90.958 90.1727 91.7793 89.818 92.7406 89.818C93.8046 89.818 94.6213 90.21 95.1906 90.994V87.2ZM91.3966 95.11C91.8166 95.53 92.344 95.74 92.9786 95.74C93.6133 95.74 94.1406 95.53 94.5606 95.11C94.9806 94.6807 95.1906 94.144 95.1906 93.5C95.1906 92.856 94.9806 92.324 94.5606 91.904C94.1406 91.4747 93.6133 91.26 92.9786 91.26C92.344 91.26 91.8166 91.4747 91.3966 91.904C90.9766 92.324 90.7666 92.856 90.7666 93.5C90.7666 94.144 90.9766 94.6807 91.3966 95.11Z" fill="white"/>
</svg>
