<svg width="35" height="26" viewBox="0 0 35 26" fill="none" xmlns="http://www.w3.org/2000/svg">
<path d="M17.5039 14.4395C18.0036 14.4395 18.4063 14.1688 18.6599 13.9432C21.8519 11.0403 30.988 2.60994 33.7401 0.0680498C33.6356 0.0454886 33.5312 0.000366211 33.4119 0.000366211H1.58841C1.46908 0.000366211 1.36467 0.0454886 1.26025 0.0680498C4.01227 2.60994 13.1484 11.0403 16.3479 13.9432C16.594 14.1688 16.9967 14.4395 17.5039 14.4395Z" fill="#051C2C"/>
<path d="M19.7195 15.1313C19.0631 15.7254 18.295 16.0413 17.497 16.0413C16.6989 16.0413 15.9308 15.7254 15.2745 15.1313C14.8941 14.7854 14.4093 14.3492 13.8873 13.8604C9.845 17.3573 3.43108 23.4865 1.23096 25.5997C1.35029 25.6298 1.46216 25.6749 1.58894 25.6749H33.4124C33.5392 25.6749 33.6511 25.6298 33.7704 25.5997C31.5703 23.4865 25.1564 17.3573 21.1141 13.8679C20.5846 14.3492 20.0998 14.7854 19.7195 15.1313Z" fill="#051C2C"/>
<path d="M0.0894966 1.15906C0.0447483 1.30195 0 1.44483 0 1.60276V24.0662C0 24.2166 0.0447483 24.3445 0.0820385 24.4873C2.20758 22.4418 8.58421 16.3503 12.7011 12.7781C8.5693 8.98779 2.20012 3.10684 0.0894966 1.15906Z" fill="#051C2C"/>
<path d="M22.2988 12.7781C26.4157 16.3427 32.7923 22.4418 34.9178 24.4873C34.9551 24.352 34.9999 24.2166 34.9999 24.0662V1.60276C34.9999 1.44483 34.9551 1.30195 34.9104 1.15906C32.8072 3.10684 26.4306 8.98779 22.2988 12.7781Z" fill="#051C2C"/>
</svg>
