<?xml version="1.0" standalone="no"?>
<!DOCTYPE svg PUBLIC "-//W3C//DTD SVG 20010904//EN"
 "http://www.w3.org/TR/2001/REC-SVG-20010904/DTD/svg10.dtd">
<svg version="1.0" xmlns="http://www.w3.org/2000/svg"
 width="1920.000000pt" height="1920.000000pt" viewBox="0 0 1920.000000 1920.000000"
 preserveAspectRatio="xMidYMid meet">
<metadata>
Created by potrace 1.14, written by Peter Selinger 2001-2017
</metadata>
<g transform="translate(0.000000,1920.000000) scale(0.100000,-0.100000)"
fill="#000000" stroke="none">
<path d="M9738 13595 c-2 -2 -48 -6 -103 -10 -149 -11 -227 -19 -284 -30 -9
-1 -48 -8 -88 -15 -91 -15 -108 -18 -108 -20 0 -1 -11 -3 -25 -4 -14 0 -31 -5
-37 -9 -7 -5 -13 -6 -13 -3 0 2 -24 -2 -52 -10 -29 -8 -68 -17 -86 -20 -19 -3
-51 -12 -73 -19 -21 -8 -39 -12 -39 -10 0 2 -15 -2 -34 -10 -18 -8 -44 -16
-57 -19 -24 -5 -186 -63 -244 -87 -16 -7 -32 -13 -35 -14 -114 -39 -531 -256
-551 -287 -3 -5 -9 -9 -13 -8 -10 1 -244 -160 -282 -195 -6 -5 -26 -22 -45
-37 -19 -14 -45 -36 -59 -48 -14 -12 -47 -40 -75 -63 -70 -59 -352 -342 -400
-402 -22 -28 -43 -52 -46 -55 -10 -7 -71 -82 -94 -114 -11 -16 -25 -33 -30
-40 -12 -13 -74 -95 -93 -122 -78 -117 -142 -215 -142 -219 0 -3 -17 -33 -38
-67 -21 -35 -48 -83 -61 -108 -12 -25 -26 -52 -32 -60 -11 -18 -99 -209 -99
-215 0 -3 -8 -24 -19 -48 -28 -63 -72 -180 -74 -197 -2 -8 -5 -19 -9 -25 -15
-25 -87 -286 -112 -410 -9 -44 -19 -91 -21 -105 -3 -14 -8 -41 -10 -60 -3 -19
-10 -60 -15 -90 -5 -30 -12 -82 -15 -115 -4 -33 -8 -73 -10 -90 -23 -192 -23
-642 1 -845 2 -19 6 -55 8 -80 4 -40 18 -133 32 -212 15 -93 47 -238 73 -330
16 -60 26 -108 22 -108 -3 0 -1 -4 6 -8 6 -4 14 -20 17 -36 4 -25 25 -87 46
-141 120 -306 189 -449 325 -673 27 -44 108 -168 114 -172 3 -3 22 -27 40 -55
40 -58 168 -219 226 -284 55 -63 309 -317 371 -371 94 -84 114 -100 119 -100
3 0 16 -10 28 -22 12 -13 29 -27 38 -33 9 -5 54 -38 100 -72 46 -34 89 -66 95
-70 5 -4 19 -13 30 -20 10 -7 62 -39 114 -72 161 -101 352 -199 525 -269 102
-42 288 -110 319 -117 6 -1 18 -5 26 -8 22 -8 210 -58 240 -63 14 -3 32 -7 40
-10 16 -6 202 -41 260 -50 19 -2 44 -6 55 -9 11 -2 47 -7 80 -10 33 -3 70 -8
83 -10 36 -6 171 -17 240 -20 34 -1 65 -5 68 -8 3 -3 16 -2 29 3 13 5 25 6 28
3 14 -13 612 2 612 16 0 1 29 4 65 6 36 2 76 7 90 10 14 3 43 7 65 10 63 8 88
12 120 18 17 3 48 9 70 12 22 3 58 10 80 16 22 6 49 13 60 15 11 2 63 15 115
29 52 14 102 27 110 29 8 3 27 9 43 15 15 6 27 8 27 5 0 -4 7 0 17 7 9 8 17
13 17 11 1 -2 15 2 31 8 17 7 40 14 51 16 12 2 35 11 50 19 16 8 37 15 46 15
9 0 19 4 22 9 3 5 17 12 30 15 14 3 67 26 118 50 51 24 95 43 98 42 3 0 19 9
37 22 17 12 35 22 40 22 4 0 25 11 44 25 20 13 39 21 43 18 3 -4 6 -1 6 5 0 7
4 12 9 12 9 0 173 99 196 118 6 4 33 23 60 42 429 292 816 733 1055 1205 77
151 143 299 143 323 0 6 4 12 9 12 4 0 8 8 8 18 0 10 5 23 12 30 7 7 9 12 5
12 -3 0 1 19 9 43 39 106 68 210 118 427 2 8 7 35 11 60 4 25 9 54 11 65 15
77 24 135 29 195 2 25 7 66 10 91 13 96 17 216 20 615 l2 410 -1863 0 -1864 0
-1 -25 c0 -30 0 -1240 0 -1258 1 -10 233 -13 1127 -13 1069 0 1126 -1 1119
-17 -4 -10 -13 -36 -20 -58 -15 -47 -82 -210 -98 -240 -6 -11 -12 -22 -12 -25
-2 -13 -129 -223 -150 -246 -5 -7 -19 -24 -30 -40 -105 -148 -364 -377 -529
-469 -28 -15 -72 -41 -98 -56 -27 -16 -55 -29 -61 -29 -7 0 -17 -4 -23 -9 -8
-8 -153 -69 -179 -76 -5 -1 -22 -7 -37 -13 -28 -12 -195 -58 -238 -66 -14 -3
-61 -12 -105 -20 -44 -8 -102 -18 -130 -21 -27 -4 -61 -8 -75 -10 -101 -16
-472 -26 -507 -13 -14 4 -23 4 -23 -3 0 -6 -3 -8 -8 -5 -4 2 -43 7 -87 11 -44
3 -98 8 -120 11 -22 3 -60 7 -85 9 -25 3 -56 7 -70 10 -14 3 -40 8 -59 11 -18
3 -41 7 -50 9 -127 27 -170 37 -214 51 -60 18 -165 53 -187 61 -8 4 -17 7 -20
8 -3 1 -22 9 -44 18 -21 9 -41 17 -43 17 -11 0 -249 122 -263 135 -8 8 -19 14
-25 16 -20 4 -201 131 -274 193 -14 12 -84 80 -156 151 -124 123 -239 265
-308 378 -18 29 -34 54 -37 57 -10 10 -103 191 -134 261 -68 154 -143 416
-162 564 -3 28 -8 59 -11 70 -18 82 -24 589 -9 700 5 33 10 71 11 85 3 30 13
96 20 130 3 14 8 39 11 55 3 17 12 57 20 90 9 33 17 67 19 75 6 26 73 224 89
262 9 21 16 40 16 43 -1 10 132 260 154 290 12 17 27 42 35 56 7 15 24 38 37
52 13 14 24 29 24 32 0 3 5 11 10 18 6 7 24 30 40 52 64 85 205 235 295 313
28 24 59 52 70 61 38 34 184 141 191 141 4 0 15 7 25 16 19 17 64 44 119 72
19 9 37 19 40 22 10 11 167 84 230 107 36 13 74 28 85 33 23 10 88 30 113 35
9 2 17 4 17 5 0 1 7 3 15 5 8 1 35 8 59 15 25 6 56 13 70 15 14 2 26 4 26 5 0
3 134 27 200 36 206 28 595 23 785 -10 36 -6 44 -7 115 -21 22 -4 47 -9 55
-11 24 -4 55 -12 55 -14 0 -1 9 -3 19 -5 16 -3 48 -11 76 -20 49 -15 96 -29
100 -30 7 -2 36 -14 105 -42 33 -14 70 -27 83 -30 12 -3 22 -9 22 -14 0 -5 3
-8 8 -7 16 4 284 -138 290 -154 2 -4 8 -8 14 -8 9 0 149 -92 174 -115 6 -5 29
-23 50 -40 116 -89 272 -260 361 -396 27 -40 51 -77 54 -82 4 -5 34 7 68 27
34 20 66 36 72 36 5 0 9 4 9 9 0 5 8 11 18 14 9 3 40 19 67 35 240 139 569
330 606 351 294 167 409 236 409 245 0 6 -16 35 -35 65 -19 29 -35 55 -35 57
0 3 -5 10 -10 17 -6 7 -50 66 -99 132 -115 154 -149 193 -301 345 -126 127
-175 172 -266 245 -27 21 -51 42 -54 45 -3 3 -21 17 -40 30 -19 13 -37 27 -40
30 -3 3 -18 14 -34 25 -16 11 -39 27 -51 35 -12 8 -55 37 -96 63 -41 27 -86
57 -101 68 -15 10 -30 19 -34 19 -3 0 -18 9 -33 20 -39 27 -281 152 -377 194
-149 65 -159 69 -169 72 -5 1 -41 14 -80 29 -38 14 -74 28 -80 29 -5 2 -17 6
-25 9 -20 8 -221 66 -246 70 -10 2 -26 7 -34 10 -8 4 -26 8 -40 11 -14 2 -36
7 -50 10 -14 3 -36 8 -50 10 -14 3 -50 10 -80 16 -30 6 -71 13 -90 16 -19 2
-53 7 -75 11 -79 12 -173 23 -250 30 -69 6 -602 13 -607 8z"/>
<path d="M0 9728 l0 -3723 730 0 730 0 0 100 c1 55 1 637 1 1293 0 1110 1
1192 17 1193 25 1 1053 1 1083 0 20 -1 30 -9 39 -31 7 -16 16 -30 21 -30 5 0
9 -4 9 -9 0 -6 29 -60 65 -121 36 -61 65 -113 65 -116 0 -2 11 -23 25 -45 34
-53 174 -296 193 -334 9 -16 18 -32 22 -35 4 -3 26 -41 50 -85 24 -44 56 -100
72 -124 15 -25 28 -51 28 -58 0 -7 4 -13 8 -13 5 0 15 -12 23 -27 7 -16 30
-57 51 -92 21 -34 38 -65 38 -67 0 -2 29 -53 64 -112 36 -60 73 -125 82 -145
10 -20 21 -37 26 -37 4 0 8 -4 8 -10 0 -5 22 -47 49 -92 123 -211 191 -331
191 -339 0 -5 5 -9 10 -9 6 0 10 -5 10 -10 0 -6 11 -27 23 -48 23 -35 45 -74
103 -179 15 -27 32 -55 39 -63 6 -8 17 -30 25 -47 7 -18 16 -33 21 -33 5 0 9
-4 9 -10 0 -7 134 -246 146 -259 6 -7 1575 -7 1579 0 3 5 -105 196 -135 239
-6 8 -16 27 -23 43 -6 15 -15 27 -19 27 -4 0 -8 4 -8 9 0 7 -112 205 -160 281
-5 8 -66 113 -137 233 -70 120 -135 230 -144 245 -9 15 -25 43 -36 62 -11 19
-48 82 -82 138 -33 57 -61 105 -61 107 0 2 -14 24 -30 48 -17 25 -30 47 -30
50 0 3 -41 73 -90 156 -50 84 -90 156 -90 162 0 5 -4 9 -9 9 -5 0 -11 6 -13
13 -2 10 -112 201 -158 277 -5 8 -37 62 -71 120 -34 58 -83 141 -109 185 -26
44 -57 98 -69 120 -12 22 -41 72 -64 110 -23 39 -55 91 -70 117 l-27 46 83 42
c83 43 218 120 227 130 3 3 25 18 50 34 136 88 360 286 465 412 22 26 47 55
55 64 8 8 31 36 50 60 19 25 38 47 42 48 5 2 8 8 8 13 0 9 37 66 50 79 38 35
220 386 245 470 4 14 13 39 20 55 27 60 83 272 100 377 24 145 29 212 28 403
0 182 -4 239 -23 375 -16 105 -21 129 -51 250 -6 25 -12 50 -13 55 -8 32 -31
101 -36 110 -4 6 -10 24 -14 40 -4 17 -14 45 -22 63 -8 17 -21 49 -30 70 -78
179 -160 317 -301 510 -9 13 -24 32 -32 42 -9 10 -31 37 -50 60 -43 53 -246
260 -254 260 -3 0 -27 20 -52 44 -25 24 -45 42 -45 40 0 -4 -27 17 -54 41 -6
6 -27 22 -46 35 -19 13 -37 27 -40 30 -12 14 -240 151 -300 180 -61 30 -129
59 -150 65 -14 4 -30 11 -35 15 -26 21 -345 116 -395 119 -8 0 -49 7 -91 15
-41 8 -102 18 -135 22 -32 4 -782 9 -1666 11 l-1608 4 0 -3723z m3145 2329
c110 -28 186 -51 191 -58 3 -5 14 -9 25 -9 10 0 19 -4 19 -10 0 -5 9 -10 20
-10 11 0 20 -4 20 -10 0 -5 5 -10 11 -10 21 0 129 -81 201 -152 95 -93 184
-204 186 -232 0 -5 5 -12 10 -15 25 -16 97 -193 116 -285 3 -11 8 -32 11 -46
30 -133 26 -381 -10 -530 -36 -149 -124 -326 -219 -438 -28 -34 -137 -142
-167 -167 -63 -52 -239 -154 -239 -139 0 4 -9 -1 -20 -11 -11 -10 -20 -15 -20
-12 0 3 -19 0 -41 -9 -106 -37 -153 -39 -989 -39 l-785 0 -2 1098 -2 1097 827
-3 c455 -2 841 -6 857 -10z"/>
<path d="M14769 13443 c-1 -5 -2 -1678 -3 -3720 -1 -3292 1 -3712 14 -3715 13
-3 1425 -2 1441 1 3 1 5 644 5 1431 -1 945 2 1431 9 1433 6 2 655 3 1442 3
947 -1 1434 2 1436 9 2 6 3 39 2 75 -1 36 3 71 8 78 5 6 6 12 1 12 -13 0 -12
193 1 202 6 5 6 8 0 8 -8 0 -11 192 -5 315 0 6 -1 43 -3 83 -2 47 0 72 7 72 7
0 7 3 1 8 -8 6 -10 140 -5 312 0 8 -1 47 -3 85 -2 42 1 73 7 77 8 5 7 8 -1 8
-7 0 -10 10 -7 24 2 14 -1 28 -7 32 -10 5 -134 7 -314 3 -5 0 -26 2 -45 4 -19
2 -47 0 -62 -4 -15 -4 -30 -4 -32 0 -3 4 -24 6 -48 4 -54 -5 -56 -5 -98 0 -19
2 -47 0 -62 -4 -15 -4 -30 -4 -32 0 -3 4 -24 6 -48 4 -54 -5 -56 -5 -98 0 -19
2 -47 0 -62 -4 -15 -4 -30 -4 -32 0 -3 4 -24 6 -48 4 -54 -5 -56 -5 -98 0 -19
2 -47 0 -62 -4 -15 -4 -30 -4 -32 0 -3 4 -24 6 -48 4 -54 -5 -56 -5 -98 0 -19
2 -47 0 -62 -4 -15 -4 -30 -4 -32 0 -3 4 -24 6 -48 4 -54 -5 -56 -5 -98 0 -19
2 -47 0 -62 -4 -15 -4 -30 -4 -32 0 -3 4 -24 6 -48 4 -54 -5 -56 -5 -98 0 -19
2 -47 0 -62 -4 -15 -4 -30 -4 -32 0 -3 4 -24 6 -48 4 -54 -5 -56 -5 -98 0 -19
2 -47 0 -62 -4 -15 -4 -30 -4 -32 0 -3 4 -24 6 -48 4 -54 -5 -56 -5 -98 0 -19
2 -47 0 -62 -4 -14 -4 -29 -5 -32 -2 -3 3 -118 6 -255 5 -225 0 -249 1 -253
16 -3 14 -2 1704 1 1737 1 7 500 10 1486 10 l1485 0 0 702 0 703 -2215 0
c-1218 0 -2216 -3 -2216 -7z"/>
</g>
</svg>
