<svg width="151" height="76" viewBox="0 0 151 76" fill="none" xmlns="http://www.w3.org/2000/svg">
<path d="M31.8555 59.3241L20.1773 39.1162H11.4187V59.3241H0V1.16959H23.2266C28.6116 1.16959 33.1531 3.05392 36.9161 6.82259C40.6791 10.5913 42.5606 15.1397 42.5606 20.4678C42.5606 24.0415 41.5225 27.4203 39.5112 30.4742C37.4351 33.5282 34.7751 35.8673 31.4014 37.4268L44.2474 59.3241H31.8555ZM11.4187 11.8908V29.1097H23.1618C25.3028 29.1097 27.1843 28.265 28.7414 26.5756C30.2984 24.8862 31.077 22.8719 31.077 20.4678C31.077 18.0636 30.2984 16.0493 28.7414 14.4249C27.1843 12.7355 25.3676 11.9558 23.1618 11.9558H11.4187V11.8908Z" fill="white"/>
<path d="M107.245 28.0701V32.5535C107.245 40.8706 104.585 47.5632 99.2647 52.7614C93.9446 57.8946 87.1324 60.4937 78.6981 60.4937C69.7448 60.4937 62.3486 57.5697 56.4446 51.7217C50.5406 45.8738 47.6211 38.7263 47.6211 30.3443C47.6211 21.8973 50.5406 14.6848 56.3797 8.83688C62.154 2.92397 69.4204 0 78.0493 0C83.4343 0 88.4299 1.23456 92.9066 3.70369C97.3832 6.17282 100.887 9.42167 103.352 13.5152L93.5554 19.1682C92.1929 16.7641 90.1168 14.8798 87.2621 13.3853C84.4723 11.8908 81.3581 11.1111 77.9195 11.1111C72.4048 11.1111 67.8633 12.9304 64.295 16.5692C60.7266 20.2079 58.9749 24.7563 58.9749 30.3443C58.9749 35.8024 60.7915 40.3508 64.4247 43.9245C68.058 47.4982 72.859 49.2526 78.8278 49.2526C83.2396 49.2526 86.9377 48.278 89.7924 46.3287C92.7119 44.3793 94.6583 41.6503 95.6964 38.2065H78.1142V28.0701H107.245Z" fill="white"/>
<path d="M150 12.1507H126.773V25.9259H149.351V36.907H126.773V59.3241H115.354V1.16959H150V12.1507Z" fill="white"/>
<path d="M5.70934 75.3084L3.63322 71.6697H2.07612V75.3084H0V64.8471H4.15225C5.12543 64.8471 5.90398 65.172 6.61765 65.8867C7.26644 66.5365 7.65571 67.3812 7.65571 68.3559C7.65571 69.0056 7.46107 69.5904 7.13668 70.1752C6.74741 70.695 6.29325 71.1499 5.70934 71.4098L8.04498 75.3734H5.70934V75.3084ZM2.07612 66.7964V69.9153H4.21713C4.6064 69.9153 4.9308 69.7854 5.19031 69.4605C5.44983 69.1356 5.57959 68.8107 5.57959 68.3559C5.57959 67.901 5.44983 67.5761 5.19031 67.2513C4.9308 66.9264 4.6064 66.7964 4.21713 66.7964H2.07612Z" fill="white"/>
<path d="M10.3159 72.3845C10.5754 73.2941 11.2891 73.8139 12.3921 73.8139C13.1057 73.8139 13.6896 73.554 14.0789 73.0992L15.636 74.0089C14.9223 75.0485 13.8194 75.6333 12.3921 75.6333C11.1594 75.6333 10.1862 75.2434 9.40763 74.5287C8.69396 73.8139 8.30469 72.8393 8.30469 71.7347C8.30469 70.6301 8.69396 69.6554 9.40763 68.9407C10.1213 68.1609 11.0945 67.8361 12.2623 67.8361C13.3652 67.8361 14.2735 68.2259 14.9872 68.9407C15.7009 69.7204 16.0253 70.6301 16.0253 71.7347C16.0253 71.9946 16.0253 72.2545 15.9604 72.5144H10.3159V72.3845ZM10.2511 70.89H14.0789C13.9492 70.3702 13.7545 69.9803 13.4301 69.7854C13.1057 69.5255 12.7165 69.3955 12.2623 69.3955C11.7433 69.3955 11.2891 69.5255 10.9647 69.7854C10.5754 70.0453 10.3808 70.3702 10.2511 70.89Z" fill="white"/>
<path d="M21.9291 67.8361H24.0701L21.2154 75.3084H19.0095L16.2197 67.8361H18.3607L20.1773 73.0342L21.9291 67.8361Z" fill="white"/>
<path d="M26.2759 72.3845C26.5354 73.2941 27.2491 73.8139 28.352 73.8139C29.0657 73.8139 29.6496 73.554 30.0389 73.0992L31.596 74.0089C30.8823 75.0485 29.7794 75.6333 28.352 75.6333C27.1193 75.6333 26.1461 75.2434 25.3676 74.5287C24.6539 73.8139 24.2646 72.8393 24.2646 71.7347C24.2646 70.6301 24.6539 69.6554 25.3676 68.9407C26.0813 68.1609 27.0544 67.8361 28.2223 67.8361C29.3252 67.8361 30.2335 68.2259 30.9472 68.9407C31.6608 69.7204 31.9852 70.6301 31.9852 71.7347C31.9852 71.9946 31.9852 72.2545 31.9204 72.5144H26.2759V72.3845ZM26.2759 70.89H30.1038C29.974 70.3702 29.7794 69.9803 29.455 69.7854C29.1306 69.5255 28.7413 69.3955 28.2871 69.3955C27.7681 69.3955 27.314 69.5255 26.9896 69.7854C26.6003 70.0453 26.4057 70.3702 26.2759 70.89Z" fill="white"/>
<path d="M37.4349 67.6411C38.2783 67.6411 38.9271 67.901 39.4461 68.4858C39.9652 69.0057 40.2247 69.7854 40.2247 70.76V75.3084H38.2783V70.955C38.2783 70.4351 38.1486 70.0453 37.8891 69.7854C37.6295 69.5255 37.2403 69.3955 36.7861 69.3955C36.2671 69.3955 35.8778 69.5255 35.6183 69.8504C35.2939 70.1752 35.1641 70.6301 35.1641 71.2149V75.2435H33.2178V67.7711H35.1641V68.6158C35.6832 67.966 36.4617 67.6411 37.4349 67.6411Z" fill="white"/>
<path d="M46.8424 67.8361H48.7887V75.3084H46.8424V74.4637C46.3882 75.1785 45.6097 75.5034 44.6365 75.5034C43.793 75.5034 43.1443 75.2435 42.6252 74.6587C42.1062 74.1388 41.8467 73.3591 41.8467 72.3845V67.8361H43.793V72.1895C43.793 72.7093 43.9228 73.0992 44.1823 73.3591C44.4418 73.619 44.8311 73.749 45.2853 73.749C45.8043 73.749 46.1936 73.619 46.4531 73.2941C46.7775 72.9693 46.9072 72.5144 46.9072 71.9296V67.8361H46.8424Z" fill="white"/>
<path d="M52.1626 72.3845C52.4221 73.2941 53.1358 73.8139 54.2387 73.8139C54.9524 73.8139 55.5363 73.554 55.9256 73.0992L57.4827 74.0089C56.769 75.0485 55.6661 75.6333 54.2387 75.6333C53.006 75.6333 52.0329 75.2434 51.2543 74.5287C50.5406 73.8139 50.1514 72.8393 50.1514 71.7347C50.1514 70.6301 50.5406 69.6554 51.2543 68.9407C51.968 68.1609 52.9412 67.8361 54.109 67.8361C55.2119 67.8361 56.1202 68.2259 56.8339 68.9407C57.5476 69.7204 57.8719 70.6301 57.8719 71.7347C57.8719 71.9946 57.8719 72.2545 57.8071 72.5144H52.1626V72.3845ZM52.0977 70.89H55.9256C55.7958 70.3702 55.6012 69.9803 55.2768 69.7854C54.9524 69.5255 54.5631 69.3955 54.109 69.3955C53.5899 69.3955 53.1358 69.5255 52.8114 69.7854C52.4221 70.0453 52.2275 70.3702 52.0977 70.89Z" fill="white"/>
<path d="M73.1835 69.6554V70.4351C73.1835 71.9296 72.7294 73.1642 71.7562 74.0739C70.783 74.9835 69.5503 75.4384 68.0581 75.4384C66.4361 75.4384 65.1385 74.9186 64.0356 73.8789C62.9975 72.8393 62.4785 71.5398 62.4785 70.0453C62.4785 68.5508 62.9975 67.2513 64.0356 66.2116C65.0737 65.172 66.3712 64.6522 67.9283 64.6522C68.9015 64.6522 69.8098 64.8471 70.5884 65.302C71.3669 65.7568 72.0157 66.3416 72.4699 67.0563L70.7181 68.096C70.4586 67.6411 70.0693 67.3162 69.6152 67.0563C69.161 66.7964 68.5771 66.6665 67.9283 66.6665C66.9552 66.6665 66.1117 66.9914 65.4629 67.6411C64.8142 68.2909 64.4898 69.1356 64.4898 70.1103C64.4898 71.0849 64.8142 71.9296 65.4629 72.5794C66.1117 73.2292 66.9552 73.554 68.0581 73.554C68.8366 73.554 69.4854 73.3591 70.0045 73.0342C70.5235 72.7093 70.9128 72.1895 71.0425 71.6047H67.8635V69.7854H73.1835V69.6554Z" fill="white"/>
<path d="M76.4923 69.1356C76.6869 68.6808 76.9464 68.2909 77.4006 68.031C77.7898 67.7711 78.244 67.6411 78.763 67.6411V69.7854C78.1791 69.7204 77.6601 69.8504 77.2059 70.1752C76.7518 70.5001 76.4923 71.0199 76.4923 71.7347V75.3084H74.5459V67.8361H76.4923V69.1356Z" fill="white"/>
<path d="M85.9647 74.3338C85.1861 75.1135 84.2778 75.5034 83.1749 75.5034C82.072 75.5034 81.1637 75.1135 80.3851 74.3338C79.6066 73.554 79.2173 72.6444 79.2173 71.5398C79.2173 70.4351 79.6066 69.5255 80.3851 68.7457C81.1637 67.966 82.072 67.5762 83.1749 67.5762C84.2778 67.5762 85.1861 67.966 85.9647 68.7457C86.7432 69.5255 87.1325 70.4351 87.1325 71.5398C87.0676 72.6444 86.6784 73.619 85.9647 74.3338ZM81.6827 73.0342C82.072 73.4241 82.5261 73.619 83.11 73.619C83.6939 73.619 84.1481 73.4241 84.5374 73.0342C84.9266 72.6444 85.1213 72.1246 85.1213 71.5398C85.1213 70.955 84.9266 70.4351 84.5374 70.0453C84.1481 69.6554 83.6939 69.4605 83.11 69.4605C82.5261 69.4605 82.072 69.6554 81.6827 70.0453C81.2934 70.4351 81.0988 70.955 81.0988 71.5398C81.0988 72.1895 81.2934 72.6444 81.6827 73.0342Z" fill="white"/>
<path d="M96.5396 67.8361H98.5509L96.2153 75.3084H94.3986L93.0362 70.76L91.6737 75.3084H89.8571L87.5215 67.8361H89.5327L90.8303 72.3845L92.1928 67.8361H94.0094L95.3718 72.4494L96.5396 67.8361Z" fill="white"/>
<path d="M103.871 69.6554H102.184V72.7743C102.184 73.0342 102.249 73.2292 102.379 73.3591C102.509 73.4891 102.703 73.554 102.963 73.554C103.222 73.554 103.547 73.554 103.871 73.554V75.3084C102.574 75.4384 101.6 75.3084 101.081 74.9186C100.562 74.5287 100.238 73.8139 100.238 72.7743V69.6554H98.9404V67.8361H100.238V66.3416L102.184 65.7568V67.8361H103.871V69.6554Z" fill="white"/>
<path d="M109.386 67.6411C110.229 67.6411 110.878 67.901 111.397 68.4858C111.916 69.0057 112.175 69.7854 112.175 70.76V75.3084H110.229V70.955C110.229 70.4351 110.099 70.0453 109.84 69.7854C109.58 69.5255 109.191 69.3955 108.737 69.3955C108.218 69.3955 107.828 69.5255 107.569 69.8504C107.245 70.1752 107.115 70.6301 107.115 71.2149V75.2435H105.168V64.8471H107.115V68.6808C107.634 67.966 108.348 67.6411 109.386 67.6411Z" fill="white"/>
<path d="M123.854 66.7964H119.702V69.2656H123.724V71.2149H119.702V75.2435H117.625V64.8471H123.854V66.7964Z" fill="white"/>
<path d="M130.147 67.8361H132.093V75.3084H130.147V74.4637C129.693 75.1785 128.914 75.5034 127.941 75.5034C127.098 75.5034 126.449 75.2435 125.93 74.6587C125.411 74.1388 125.151 73.3591 125.151 72.3845V67.8361H127.098V72.1895C127.098 72.7093 127.227 73.0992 127.487 73.3591C127.747 73.619 128.136 73.749 128.59 73.749C129.109 73.749 129.498 73.619 129.758 73.2941C130.082 72.9693 130.212 72.5144 130.212 71.9296V67.8361H130.147Z" fill="white"/>
<path d="M137.997 67.6411C138.841 67.6411 139.49 67.901 140.009 68.4858C140.528 69.0057 140.787 69.7854 140.787 70.76V75.3084H138.841V70.955C138.841 70.4351 138.711 70.0453 138.452 69.7854C138.192 69.5255 137.803 69.3955 137.349 69.3955C136.83 69.3955 136.44 69.5255 136.181 69.8504C135.856 70.1752 135.727 70.6301 135.727 71.2149V75.2435H133.78V67.7711H135.727V68.6158C136.246 67.966 136.959 67.6411 137.997 67.6411Z" fill="white"/>
<path d="M148.119 64.8471H150.065V75.3084H148.119V74.3987C147.535 75.1135 146.756 75.5034 145.718 75.5034C144.745 75.5034 143.837 75.1135 143.123 74.3338C142.409 73.554 142.085 72.6444 142.085 71.5398C142.085 70.4351 142.409 69.5255 143.123 68.7457C143.837 67.966 144.68 67.5762 145.718 67.5762C146.756 67.5762 147.535 67.966 148.119 68.6808V64.8471ZM144.55 73.0992C144.94 73.4891 145.459 73.684 146.043 73.684C146.626 73.684 147.146 73.4891 147.535 73.0992C147.924 72.7093 148.119 72.1895 148.119 71.6047C148.119 71.0199 147.924 70.5001 147.535 70.1103C147.146 69.7204 146.626 69.5255 146.043 69.5255C145.459 69.5255 144.94 69.7204 144.55 70.1103C144.161 70.5001 143.966 71.0199 143.966 71.6047C143.966 72.1895 144.161 72.7093 144.55 73.0992Z" fill="white"/>
</svg>
