<svg width="105" height="44" viewBox="0 0 105 44" fill="none" xmlns="http://www.w3.org/2000/svg">
<path d="M22.2989 42.5419L14.1241 28.0508H7.99308V42.5419H0V0.839111H16.2587C20.0281 0.839111 23.2072 2.19037 25.8413 4.8929C28.4753 7.59543 29.7924 10.8571 29.7924 14.6779C29.7924 17.2407 29.0657 19.6636 27.6579 21.8536C26.2046 24.0436 24.3426 25.721 21.981 26.8393L30.9732 42.5419H22.2989ZM7.99308 8.52733V20.8751H16.2132C17.7119 20.8751 19.029 20.2693 20.1189 19.0579C21.2089 17.8464 21.7539 16.4019 21.7539 14.6779C21.7539 12.9539 21.2089 11.5094 20.1189 10.3446C19.029 9.13307 17.7574 8.57393 16.2132 8.57393H7.99308V8.52733Z" fill="white"/>
<path d="M75.0713 20.1292V23.3442C75.0713 29.3084 73.2093 34.1077 69.4852 37.8354C65.7612 41.5164 60.9926 43.3802 55.0886 43.3802C48.8213 43.3802 43.644 41.2834 39.5112 37.0899C35.3784 32.8963 33.3347 27.7708 33.3347 21.76C33.3347 15.7026 35.3784 10.5305 39.4658 6.33696C43.5077 2.09679 48.5942 0 54.6345 0C58.4039 0 61.9009 0.88531 65.0345 2.65593C68.1682 4.42655 70.6206 6.75632 72.3464 9.69182L65.4887 13.7456C64.535 12.0216 63.0817 10.6703 61.0834 9.59863C59.1306 8.52694 56.9506 7.96779 54.5436 7.96779C50.6833 7.96779 47.5043 9.27246 45.0064 11.8818C42.5086 14.4911 41.2824 17.7528 41.2824 21.76C41.2824 25.674 42.554 28.9357 45.0973 31.4984C47.6405 34.0612 51.0012 35.3192 55.1794 35.3192C58.2677 35.3192 60.8563 34.6203 62.8546 33.2224C64.8983 31.8246 66.2608 29.8676 66.9874 27.398H54.6799V20.1292H75.0713Z" fill="white"/>
<path d="M105 8.71372H88.7414V18.5919H104.546V26.4665H88.7414V42.5419H80.7483V0.839111H105V8.71372Z" fill="white"/>
</svg>
