<svg width="80" height="42" viewBox="0 0 80 42" fill="none" xmlns="http://www.w3.org/2000/svg">
<path d="M19.3183 18.4398C20.1725 17.3885 20.7968 16.2386 21.191 14.9572C21.5853 13.6759 21.7824 12.3946 21.7824 11.1133C21.7824 9.50343 21.5196 8.02499 20.961 6.74367C20.4354 5.46235 19.6469 4.34531 18.5955 3.42539C17.5442 2.50547 16.2629 1.78267 14.7516 1.28986C13.2074 0.797046 11.4661 0.534212 9.49489 0.534212H0V31.8772H6.1766V21.9223H10.2834L16.92 31.8772H24.115L16.8214 20.5096C17.807 19.9511 18.6612 19.2612 19.3183 18.4398ZM6.1766 6.51369H10.6119C11.6961 6.51369 12.5503 6.71082 13.1746 7.07221C13.7988 7.43361 14.2916 7.89357 14.5873 8.41924C14.9158 8.94491 15.113 9.50343 15.2115 10.0291C15.3101 10.5548 15.3758 10.9819 15.3758 11.3433C15.3758 11.8032 15.3101 12.296 15.1458 12.8217C14.9816 13.3474 14.7187 13.8402 14.3902 14.333C14.0288 14.8258 13.536 15.2201 12.9117 15.5158C12.2875 15.8443 11.499 15.9757 10.5791 15.9757H6.1766V6.51369Z" fill="#051C2C"/>
<path d="M59.9971 31.9101H66.1737V19.5897H77.8041V13.6102H66.1737V6.51369H79.6111V0.534212H59.9971V31.9101Z" fill="#051C2C"/>
<path d="M42.5233 15.2772V21.2567H47.9443V25.035C47.4186 25.3306 46.7944 25.5278 46.0716 25.6592C45.3488 25.7906 44.5274 25.8563 43.6404 25.8563C42.0962 25.8563 40.7163 25.6592 39.435 25.2321C38.1866 24.805 37.0695 24.1807 36.1496 23.3594C35.2297 22.538 34.5069 21.5196 34.0141 20.3697C33.4884 19.1869 33.2584 17.8727 33.2584 16.3943C33.2584 14.7187 33.4884 13.2403 33.9484 11.9918C34.4083 10.7433 35.0654 9.65916 35.9853 8.80495C36.8724 7.95073 37.9894 7.3265 39.2708 6.8994C40.5849 6.47229 42.0962 6.27517 43.7718 6.27517C44.4617 6.27517 45.2502 6.37373 46.1045 6.538C46.9915 6.73513 47.8457 6.96511 48.6999 7.22794C49.5541 7.52363 50.2441 7.78646 50.7369 8.08215L52.741 2.2998C51.5911 1.64271 50.1455 1.08419 48.47 0.657086C46.7944 0.22998 44.9546 0 42.9176 0C40.7821 0 38.7451 0.328543 36.8067 1.01848C34.8683 1.70842 33.1599 2.75976 31.6486 4.13964C30.1701 5.55237 28.9874 7.29365 28.1003 9.42918C27.2461 11.5319 26.7861 14.0288 26.7861 16.92C26.7861 19.1212 27.1804 21.1253 27.936 22.9651C28.6917 24.805 29.8087 26.4148 31.2543 27.7619C32.6999 29.1089 34.4412 30.1602 36.4781 30.9159C38.5151 31.6715 40.8149 32.0329 43.3775 32.0329C44.3303 32.0329 45.3488 31.9344 46.433 31.7044C47.5172 31.5073 48.5685 31.2116 49.6199 30.883C50.6712 30.5545 51.5583 30.1602 52.3796 29.766C53.1681 29.3389 53.7595 28.9446 54.1209 28.5504V15.2772H42.5233Z" fill="#051C2C"/>
<path d="M1.57701 35.2855C1.87269 35.2855 2.16838 35.3183 2.39836 35.4169C2.6612 35.4826 2.89118 35.614 3.05545 35.7783C3.25257 35.9426 3.38399 36.1397 3.51541 36.3697C3.61397 36.5997 3.67968 36.8625 3.67968 37.1582C3.67968 37.3882 3.64683 37.6181 3.58112 37.8481C3.51541 38.0781 3.38399 38.2752 3.25257 38.4724C3.0883 38.6695 2.89118 38.8009 2.62834 38.9323C2.36551 39.0309 2.06982 39.0966 1.67557 39.0966H0.788503V41.2978H0V35.3512H1.57701V35.2855ZM1.64271 38.2752C1.87269 38.2752 2.06982 38.2424 2.23409 38.1767C2.39836 38.111 2.49693 38.0124 2.59549 37.9138C2.69405 37.8153 2.75976 37.6839 2.79261 37.5524C2.82547 37.421 2.85832 37.2896 2.85832 37.191C2.85832 37.0596 2.82547 36.9611 2.79261 36.8296C2.75976 36.6982 2.69405 36.5668 2.59549 36.4682C2.49693 36.3697 2.39836 36.2711 2.23409 36.2054C2.10267 36.1397 1.90555 36.1068 1.70842 36.1068H0.788503V38.3409H1.64271V38.2752ZM2.62834 38.7352L4.17249 41.2321H3.25257L1.67557 38.768L2.62834 38.7352Z" fill="#051C2C"/>
<path d="M6.70218 41.2978C6.30793 41.2978 5.97938 41.2321 5.6837 41.0678C5.38801 40.9036 5.19088 40.7064 5.02661 40.4108C4.86234 40.1479 4.79663 39.8194 4.79663 39.4908C4.79663 39.1623 4.89519 38.8666 5.05947 38.5709C5.22374 38.3081 5.45372 38.0781 5.74941 37.9138C6.04509 37.7496 6.34078 37.651 6.70218 37.651C7.16214 37.651 7.52354 37.7824 7.81922 38.0453C8.11491 38.3081 8.31204 38.6695 8.4106 39.1294L5.61799 40.1151L5.42086 39.6551L7.72066 38.8009L7.55639 38.8995C7.49068 38.7023 7.39212 38.5709 7.22785 38.4395C7.06358 38.3081 6.86645 38.2424 6.63647 38.2424C6.43934 38.2424 6.24222 38.3081 6.07795 38.4066C5.91368 38.5052 5.78226 38.6366 5.6837 38.8338C5.58513 38.998 5.55228 39.1951 5.55228 39.4251C5.55228 39.6551 5.61799 39.8851 5.71655 40.0494C5.81511 40.2136 5.94653 40.3779 6.1108 40.4765C6.27507 40.575 6.4722 40.6407 6.70218 40.6407C6.86645 40.6407 6.99787 40.6079 7.12928 40.5422C7.2607 40.4765 7.39212 40.4108 7.52354 40.3122L7.88493 40.8707C7.72066 41.0021 7.52354 41.0678 7.32641 41.1664C7.12928 41.265 6.8993 41.2978 6.70218 41.2978Z" fill="#051C2C"/>
<path d="M10.6778 41.3307L8.77222 37.8153H9.69214L10.9735 40.5093H10.5135L11.6962 37.8153H12.5505L10.7435 41.3307H10.6778Z" fill="#051C2C"/>
<path d="M14.8499 41.2978C14.4556 41.2978 14.1271 41.2321 13.8314 41.0678C13.5357 40.9036 13.3386 40.7064 13.1743 40.4108C13.01 40.1479 12.9443 39.8194 12.9443 39.4908C12.9443 39.1623 13.0429 38.8666 13.2072 38.5709C13.3714 38.3081 13.6014 38.0781 13.8971 37.9138C14.1928 37.7496 14.4885 37.651 14.8499 37.651C15.3098 37.651 15.6712 37.7824 15.9669 38.0453C16.2626 38.3081 16.4597 38.6695 16.5583 39.1294L13.7657 40.1151L13.5686 39.6551L15.8684 38.8009L15.7041 38.8995C15.6384 38.7023 15.5398 38.5709 15.3756 38.4395C15.2113 38.3081 15.0142 38.2424 14.7842 38.2424C14.587 38.2424 14.3899 38.3081 14.2257 38.4066C14.0614 38.5052 13.93 38.6366 13.8314 38.8338C13.7328 38.998 13.7 39.1951 13.7 39.4251C13.7 39.6551 13.7657 39.8851 13.8643 40.0494C13.9628 40.2136 14.0942 40.3779 14.2585 40.4765C14.4228 40.575 14.6199 40.6407 14.8499 40.6407C15.0142 40.6407 15.1456 40.6079 15.277 40.5422C15.4084 40.4765 15.5398 40.4108 15.6712 40.3122L16.0326 40.8707C15.8684 41.0021 15.6712 41.0678 15.4741 41.1664C15.277 41.265 15.047 41.2978 14.8499 41.2978Z" fill="#051C2C"/>
<path d="M18.2341 37.8153L18.2998 38.6366L18.267 38.5052C18.3655 38.2424 18.5627 38.0453 18.7927 37.9138C19.0555 37.7496 19.3183 37.6839 19.6469 37.6839C19.9754 37.6839 20.2382 37.7824 20.4354 37.9795C20.6325 38.1767 20.7311 38.4067 20.7639 38.7023V41.2321H19.9754V38.998C19.9754 38.8009 19.9097 38.6695 19.8111 38.5381C19.7126 38.4067 19.5483 38.3738 19.3512 38.3738C19.154 38.3738 18.9898 38.4395 18.8255 38.5381C18.6612 38.6366 18.5298 38.8009 18.4641 38.998C18.3655 39.1952 18.3327 39.4251 18.3327 39.6551V41.265H17.5442V37.8481H18.2341V37.8153Z" fill="#051C2C"/>
<path d="M23.1953 41.3635C22.8996 41.3635 22.6368 41.265 22.4396 41.0678C22.2425 40.8707 22.1439 40.6407 22.1111 40.3451V37.8153H22.8667V40.0494C22.8667 40.2465 22.9324 40.3779 23.031 40.5093C23.1296 40.6407 23.2938 40.6736 23.491 40.7065C23.6881 40.7065 23.8524 40.6407 24.0166 40.5422C24.1809 40.4436 24.2795 40.2793 24.378 40.0822C24.4766 39.8851 24.5094 39.6551 24.5094 39.4251V37.8481H25.2651V41.265H24.5752L24.5094 40.4108L24.5423 40.575C24.4766 40.7393 24.378 40.8707 24.2466 41.0021C24.1152 41.1336 23.9509 41.2321 23.7867 41.2978C23.6224 41.3307 23.3924 41.3635 23.1953 41.3635Z" fill="#051C2C"/>
<path d="M28.1888 41.2978C27.7945 41.2978 27.466 41.2321 27.1703 41.0678C26.8746 40.9036 26.6775 40.7064 26.5132 40.4108C26.3489 40.1479 26.2832 39.8194 26.2832 39.4908C26.2832 39.1623 26.3818 38.8666 26.546 38.5709C26.7103 38.3081 26.9403 38.0781 27.236 37.9138C27.5317 37.7496 27.8274 37.651 28.1888 37.651C28.6487 37.651 29.0101 37.7824 29.3058 38.0453C29.6015 38.3081 29.7986 38.6695 29.8972 39.1294L27.1046 40.1151L26.9074 39.6551L29.2072 38.8009L29.043 38.8995C28.9773 38.7023 28.8787 38.5709 28.7144 38.4395C28.5501 38.3081 28.353 38.2424 28.123 38.2424C27.9259 38.2424 27.7288 38.3081 27.5645 38.4066C27.4002 38.5052 27.2688 38.6366 27.1703 38.8338C27.0717 38.998 27.0389 39.1951 27.0389 39.4251C27.0389 39.6551 27.1046 39.8851 27.2031 40.0494C27.3017 40.2136 27.4331 40.3779 27.5974 40.4765C27.7616 40.575 27.9588 40.6407 28.1888 40.6407C28.353 40.6407 28.4844 40.6079 28.6159 40.5422C28.7473 40.4765 28.8787 40.4108 29.0101 40.3122L29.3715 40.8707C29.2072 41.0021 29.0101 41.0678 28.813 41.1664C28.6159 41.265 28.3859 41.2978 28.1888 41.2978Z" fill="#051C2C"/>
<path d="M33.6755 35.2855H37.2238V36.0411H34.4969V37.9467H36.8953V38.7023H34.4969V41.2321H33.7084V35.2855H33.6755Z" fill="#051C2C"/>
<path d="M39.2937 41.3635C38.998 41.3635 38.7351 41.265 38.538 41.0678C38.3409 40.8707 38.2423 40.6407 38.2095 40.3451V37.8153H38.9651V40.0494C38.9651 40.2465 39.0308 40.3779 39.1294 40.5093C39.228 40.6407 39.3922 40.6736 39.5894 40.7065C39.7865 40.7065 39.9507 40.6407 40.115 40.5422C40.2793 40.4436 40.3779 40.2793 40.4764 40.0822C40.575 39.8851 40.6078 39.6551 40.6078 39.4251V37.8481H41.3635V41.265H40.6735L40.6078 40.4108L40.6407 40.575C40.575 40.7393 40.4764 40.8707 40.345 41.0021C40.2136 41.1336 40.0493 41.2321 39.885 41.2978C39.7208 41.3307 39.5236 41.3635 39.2937 41.3635Z" fill="#051C2C"/>
<path d="M43.4005 37.8153L43.4662 38.6366L43.4334 38.5052C43.5319 38.2424 43.729 38.0453 43.959 37.9138C44.2219 37.7496 44.4847 37.6839 44.8132 37.6839C45.1418 37.6839 45.4046 37.7824 45.6017 37.9795C45.7989 38.1767 45.8974 38.4067 45.9303 38.7023V41.2321H45.1418V38.998C45.1418 38.8009 45.0761 38.6695 44.9775 38.5381C44.8789 38.4067 44.7147 38.3738 44.5175 38.3738C44.3204 38.3738 44.1561 38.4395 43.9919 38.5381C43.8276 38.6366 43.6962 38.8009 43.6305 38.998C43.5319 39.1952 43.4991 39.4251 43.4991 39.6551V41.265H42.7434V37.8481H43.4005V37.8153Z" fill="#051C2C"/>
<path d="M48.6573 41.2978C48.3287 41.2978 48.0659 41.2321 47.803 41.0679C47.5402 40.9036 47.3431 40.7065 47.2117 40.4108C47.0474 40.1479 46.9817 39.8194 46.9817 39.458C46.9817 39.0637 47.0474 38.768 47.2117 38.4724C47.3759 38.2095 47.5731 38.0124 47.8359 37.8481C48.0987 37.7167 48.3944 37.6182 48.7558 37.6182C49.0187 37.6182 49.2815 37.6839 49.5115 37.7824C49.7414 37.9138 49.9386 38.0453 50.07 38.2752L50.0371 38.5381V34.7927H50.7928V41.1664H50.07V40.3122L50.1686 40.5422C50.0043 40.7393 49.8072 40.9364 49.5443 41.0679C49.2815 41.2321 48.9858 41.2978 48.6573 41.2978ZM48.8872 40.6736C49.0844 40.6736 49.2815 40.6407 49.4458 40.575C49.61 40.5093 49.7414 40.4108 49.84 40.2793C49.9386 40.1479 50.0043 39.9837 50.07 39.8194V39.1623C50.0371 38.998 49.9386 38.8666 49.84 38.7352C49.7414 38.6038 49.5772 38.5052 49.4458 38.4395C49.2815 38.3738 49.1172 38.3409 48.9201 38.3409C48.723 38.3409 48.5258 38.4067 48.3616 38.5052C48.1973 38.6038 48.0659 38.7352 47.9345 38.9323C47.8359 39.0966 47.7702 39.3266 47.7702 39.5566C47.7702 39.7865 47.8359 39.9837 47.9345 40.1479C48.033 40.3122 48.1644 40.4765 48.3616 40.575C48.493 40.6079 48.6901 40.6736 48.8872 40.6736Z" fill="#051C2C"/>
<path d="M59.5976 40.7064C59.4991 40.7722 59.4005 40.8379 59.2362 40.9036C59.072 40.9693 58.9406 41.035 58.7434 41.1007C58.5792 41.1664 58.382 41.1993 58.1849 41.2321C57.9878 41.265 57.8235 41.265 57.6592 41.265C57.1664 41.265 56.7393 41.1993 56.3779 41.035C55.9837 40.8707 55.6551 40.6736 55.3923 40.4108C55.1295 40.1479 54.8995 39.8522 54.7681 39.4908C54.6366 39.1294 54.5381 38.7352 54.5381 38.3409C54.5381 37.8481 54.6038 37.3882 54.7681 37.0268C54.9323 36.6325 55.1623 36.304 55.4252 36.0411C55.7208 35.7783 56.0494 35.5483 56.4108 35.4169C56.7722 35.2855 57.1664 35.2198 57.5935 35.2198C57.9549 35.2198 58.2506 35.2526 58.5463 35.3512C58.842 35.4498 59.1048 35.5483 59.3348 35.6797L59.072 36.4025C58.9734 36.3368 58.842 36.2711 58.6777 36.2054C58.5135 36.1397 58.3492 36.1069 58.1849 36.074C58.0206 36.0411 57.8564 36.0083 57.6921 36.0083C57.3307 36.0083 57.035 36.074 56.7393 36.1726C56.4436 36.2711 56.2137 36.4354 56.0165 36.6325C55.8194 36.8296 55.6551 37.0596 55.5566 37.3553C55.458 37.651 55.3923 37.9467 55.3923 38.3081C55.3923 38.6366 55.458 38.9323 55.5566 39.1952C55.6551 39.458 55.8194 39.688 56.0165 39.8851C56.2137 40.0822 56.4765 40.2465 56.7393 40.3451C57.035 40.4436 57.3307 40.5093 57.6592 40.5093C57.8564 40.5093 58.0535 40.4765 58.2506 40.4436C58.4477 40.4108 58.612 40.3451 58.7763 40.2793V39.0966H57.6264V38.3409H59.5976V40.7064Z" fill="#051C2C"/>
<path d="M61.6346 37.8153L61.7003 38.8009L61.6675 38.6695C61.766 38.4724 61.8975 38.2752 62.0617 38.1438C62.226 38.0124 62.3903 37.881 62.5874 37.8153C62.7845 37.7496 62.9159 37.6839 63.0802 37.6839L63.0474 38.4395C62.7845 38.4395 62.5545 38.4724 62.3574 38.6038C62.1603 38.7352 61.996 38.8666 61.8975 39.0637C61.7989 39.2609 61.7332 39.458 61.7332 39.688V41.2321H60.9775V37.8153H61.6346Z" fill="#051C2C"/>
<path d="M63.606 39.4908C63.606 39.1623 63.6717 38.8338 63.8359 38.5709C64.0002 38.3081 64.2302 38.0781 64.493 37.9138C64.7887 37.7496 65.1173 37.6839 65.4787 37.6839C65.84 37.6839 66.1686 37.7496 66.4643 37.9138C66.76 38.0781 66.9571 38.2752 67.1214 38.5709C67.2856 38.8338 67.3513 39.1623 67.3513 39.4908C67.3513 39.8194 67.2856 40.1479 67.1214 40.4108C66.9571 40.6736 66.76 40.9036 66.4643 41.0678C66.1686 41.2321 65.84 41.2978 65.4787 41.2978C65.1173 41.2978 64.7887 41.2321 64.5259 41.0678C64.263 40.9036 64.0331 40.7065 63.8688 40.4436C63.6717 40.1808 63.606 39.8522 63.606 39.4908ZM64.3616 39.4908C64.3616 39.7208 64.4273 39.9179 64.5259 40.0822C64.6244 40.2465 64.7559 40.4108 64.9201 40.5093C65.0844 40.6079 65.2815 40.6736 65.4787 40.6736C65.7086 40.6736 65.8729 40.6079 66.0372 40.5093C66.2014 40.4108 66.3329 40.2793 66.4314 40.0822C66.53 39.9179 66.5628 39.7208 66.5628 39.4908C66.5628 39.2609 66.53 39.0637 66.4314 38.8995C66.3329 38.7352 66.2014 38.5709 66.0372 38.4724C65.8729 38.3738 65.6758 38.3081 65.4787 38.3081C65.2815 38.3081 65.0844 38.3738 64.9201 38.4724C64.7559 38.5709 64.6244 38.7352 64.5259 38.8995C64.4273 39.0966 64.3616 39.2937 64.3616 39.4908Z" fill="#051C2C"/>
<path d="M70.4722 37.8153L71.4907 40.1151H71.3264L72.2792 37.8153H73.0349L71.4579 41.4292L70.3737 39.0966L69.388 41.4292L67.811 37.8153H68.5667L69.618 40.2136L69.3552 40.1808L70.1108 38.4067L69.848 37.8153H70.4722Z" fill="#051C2C"/>
<path d="M74.1526 36.304H74.9082V37.8153H75.861V38.4067H74.9082V41.1993H74.1526V38.4395H73.5283V37.8481H74.1526V36.304Z" fill="#051C2C"/>
<path d="M76.7803 41.2321V34.8584H77.5359V38.6038L77.5031 38.4724C77.6345 38.2424 77.7988 38.0453 78.0287 37.9138C78.2587 37.7496 78.5544 37.6839 78.8829 37.6839C79.2115 37.6839 79.4743 37.7824 79.6715 37.9795C79.8686 38.1767 79.9671 38.4067 80 38.7023V41.2321H79.2115V38.998C79.2115 38.8009 79.1458 38.6695 79.0472 38.5381C78.9487 38.4067 78.7844 38.3738 78.5873 38.3738C78.3901 38.3738 78.2259 38.4395 78.0616 38.5381C77.8973 38.6366 77.7659 38.8009 77.7002 38.998C77.6016 39.1952 77.5688 39.4251 77.5688 39.6551V41.265H76.7803V41.2321Z" fill="#051C2C"/>
</svg>
