<svg width="35" height="35" viewBox="0 0 35 35" fill="none" xmlns="http://www.w3.org/2000/svg">
<path d="M14.5102 20.4925C11.166 17.1484 10.4109 13.8042 10.2406 12.4643C10.193 12.0939 10.3205 11.7223 10.5855 11.4591L13.2918 8.75407C13.6899 8.35622 13.7605 7.73619 13.4621 7.25898L9.15325 0.568196C8.82313 0.0397764 8.1453 -0.150935 7.58808 0.127822L0.670767 3.38562C0.220159 3.6075 -0.0448821 4.08626 0.0062794 4.58593C0.368727 8.02918 1.86986 16.4935 10.188 24.8123C18.5062 33.1311 26.9694 34.6316 30.4144 34.9941C30.9141 35.0452 31.3928 34.7802 31.6147 34.3296L34.8725 27.4123C35.1502 26.8562 34.9608 26.1802 34.4346 25.8495L27.7438 21.5418C27.2668 21.2431 26.6468 21.3133 26.2487 21.711L23.5436 24.4172C23.2804 24.6823 22.9089 24.8098 22.5384 24.7622C21.1986 24.5918 17.8544 23.8367 14.5102 20.4925Z" fill="#051C2C"/>
</svg>
