<svg width="35" height="51" viewBox="0 0 35 51" fill="none" xmlns="http://www.w3.org/2000/svg">
<path d="M17.5 0C7.85057 0 0 7.85057 0 17.5C0 29.6283 17.5172 50.3459 17.5172 50.3459C17.5172 50.3459 35 29.0319 35 17.5C35 7.85057 27.1497 0 17.5 0ZM22.7801 22.624C21.3242 24.0796 19.4122 24.8076 17.5 24.8076C15.5881 24.8076 13.6755 24.0796 12.2202 22.624C9.30865 19.7128 9.30865 14.9756 12.2202 12.0641C13.63 10.6536 15.5054 9.87682 17.5 9.87682C19.4946 9.87682 21.3697 10.6539 22.7801 12.0641C25.6917 14.9756 25.6917 19.7128 22.7801 22.624Z" fill="#051C2C"/>
</svg>
